<svg width="94" height="52" viewBox="0 0 94 52" fill="none" xmlns="http://www.w3.org/2000/svg">
<path d="M25.7613 16.2657C26.3139 16.3479 26.8993 16.3068 27.1616 16.8871C27.466 17.5634 27.3583 18.9343 27.4519 19.7112C27.4707 19.8665 27.5128 20.0265 27.6674 20.095L39.7736 22.1056C40.1061 22.0873 40.3028 21.9 40.4527 21.6258C41.3893 19.4096 41.9981 16.942 42.9582 14.7486C43.2673 14.0494 43.6654 13.7981 44.3866 13.5376C45.9883 12.9619 47.8335 12.9939 49.4445 13.5148C50.6762 13.9123 50.9385 14.4424 51.3787 15.5574C52.0297 17.2116 52.5355 18.9298 53.2145 20.5748C53.4019 21.0272 53.725 22.0416 54.2589 22.1148C56.2868 21.868 58.2959 21.4339 60.3097 21.082C62.1315 20.7622 64.1687 20.5474 65.9483 20.1407C66.2902 20.063 66.4775 19.9945 66.5337 19.6152C66.6602 18.8064 66.5712 17.9062 66.796 17.0836C66.9786 16.4028 67.461 16.5536 68.0464 16.4073C68.023 16.0463 67.8497 15.7996 67.4985 15.6853C64.726 14.8126 61.9207 14.0357 59.1623 13.1264C58.4692 12.8979 57.5278 12.6329 56.8862 12.3313C56.4554 12.1302 56.3476 11.7601 56.6286 11.3625C56.9096 10.965 57.9399 11.3854 58.3427 11.5042C60.867 12.2399 63.6863 13.2041 66.1544 14.118C66.5852 14.2779 67.7186 14.8537 68.0698 14.8445C68.6365 14.8354 68.8473 14.4835 69.5778 14.712C70.2241 14.9131 70.285 15.1781 69.9946 15.7676C70.3412 15.859 70.8985 16.1743 71.2498 16.124C71.4652 16.092 71.7368 15.9047 71.9476 15.8453C72.6454 15.6534 73.8911 15.9047 74.5842 16.1332C76.7432 17.0791 79.141 17.728 81.2719 18.7013C81.6138 18.8566 82.5036 19.2907 82.616 19.6289C82.7284 19.967 82.6394 20.5702 82.1664 20.5702C81.7496 20.5702 81.1174 20.4377 80.7006 20.3555C78.0873 19.8345 75.4928 19.0668 72.9076 18.4545C71.8445 17.897 71.3996 16.5673 70.107 16.3205C70.2382 16.645 70.5707 16.8323 70.7533 17.1293C71.2966 18.0067 70.9313 19.83 71.142 20.9084C71.2825 21.6304 72.0927 22.1696 71.2451 22.8002C70.2475 23.545 68.777 23.5313 67.6483 23.1292C67.1613 22.9556 66.7351 22.5946 66.2106 22.6814L55.9215 25.9852C55.6498 26.0994 55.5234 26.0766 55.4953 26.3919C55.4672 26.7072 55.4391 27.1733 55.7763 27.3104C59.373 28.6675 62.951 30.075 66.4869 31.5738C67.2877 31.9119 68.2478 32.2547 69.0018 32.6385C69.072 32.6751 69.5076 32.9264 69.5263 32.9492C69.5732 33.0178 69.5404 33.0178 69.5029 33.068C69.4467 33.1366 69.1891 33.2965 69.0955 33.3559C68.5709 33.6758 67.4048 34.1328 67.0489 34.5577C66.8288 34.8228 66.8007 35.2934 66.3464 35.1883C63.1618 34.1876 59.9818 33.1686 56.8019 32.1633C56.2071 31.9759 55.3595 31.8206 54.8209 31.5829C54.2823 31.3453 54.3198 31.0711 54.1559 30.5868C54.1371 30.5274 54.1746 30.4634 54.0763 30.4862C53.4674 31.0757 53.1724 31.8662 52.9897 32.6705C52.6572 34.1282 52.5448 35.6773 52.1093 37.1121C51.8377 38.0078 51.3319 38.7983 50.4467 39.2141C50.3858 38.9034 50.6481 38.7161 50.7839 38.4693C51.1071 37.8753 51.2991 37.336 51.4162 36.6643C51.6035 35.6316 51.7534 34.1648 51.8049 33.1137C51.8142 32.9675 51.8423 32.5288 51.7393 32.4466C51.5332 32.2912 50.606 32.6431 50.3062 32.5882C50.2688 32.6202 50.4655 33.0269 50.4842 33.1229C50.6528 34.1648 49.4351 33.9226 49.4679 33.2554C49.4773 33.0635 49.6131 32.9035 49.6506 32.7253L44.5458 32.6339C44.5177 32.6568 44.7519 32.9904 44.7706 33.0772C44.8877 33.6392 44.2882 33.9728 43.9651 33.4976C43.7544 33.1914 43.8761 32.8304 44.218 32.6979C44.3023 32.6659 44.4475 32.7162 44.4522 32.6339L42.532 32.2684C42.9301 34.4161 43.1221 36.6506 44.1478 38.6201C44.2227 38.7618 44.4053 38.9811 44.4522 39.0999C44.4756 39.1593 44.4428 39.1822 44.3819 39.1684C43.8574 39.0222 43.1174 37.9849 42.8973 37.5097C42.326 36.2713 42.0122 34.7405 41.5485 33.4336C41.1786 32.3918 40.7102 31.3864 40.3262 30.3537C40.078 30.1846 39.8766 30.9203 39.7783 31.0666C39.6425 31.2676 39.4645 31.3545 39.2678 31.4824L27.7798 35.1244C27.3302 35.1655 27.1147 34.7405 26.815 34.5075C26.342 34.1328 25.7847 33.8677 25.2976 33.5204C25.0073 33.3102 24.4687 32.9401 24.8949 32.5882C25.1009 32.4146 25.8596 32.1176 26.15 31.9851C30.1167 30.2395 34.3738 28.9143 38.3827 27.2418L38.6402 26.9859C38.5232 26.6843 38.7199 26.1817 38.392 25.9943L27.9156 22.6448C27.3161 22.5397 27.1616 22.7956 26.6792 22.9967C25.7051 23.4079 24.6326 23.5039 23.6117 23.184C22.9232 22.9693 22.4549 22.6448 22.5205 21.868C22.5532 21.4933 22.7265 21.3973 22.8389 21.1277C22.9185 20.9312 22.9373 20.2184 22.9466 19.9533C22.9794 19.0714 22.7125 17.4401 23.3635 16.7958C23.5836 16.581 23.977 16.5261 23.9723 16.1332C23.7943 16.1332 23.6585 16.1057 23.504 16.2017C22.4549 16.8506 21.8414 18.2123 20.5629 18.5413C18.0526 19.0349 15.4815 19.9351 12.976 20.3692C12.5123 20.4514 11.7818 20.5611 11.4914 20.1087C11.1823 19.6243 11.6038 19.1765 12.0253 18.9435C14.5261 18.0524 17.0176 16.8963 19.5419 16.0875C20.2772 15.8498 21.0546 15.6671 21.8367 15.7219C22.4174 15.763 22.7546 16.0463 23.3447 15.7767C24.0191 15.466 24.0004 14.7531 24.834 14.6709C25.396 14.6161 25.8222 14.9177 26.3654 14.7486L36.6124 11.2666C37.3477 10.9375 38.0876 11.5544 37.4413 12.1668C35.6757 12.8339 33.9055 13.4737 32.1071 14.0449C30.3087 14.6161 28.2387 15.0913 26.4544 15.7493C26.1453 15.8636 25.869 15.9412 25.7519 16.2703L25.7613 16.2657ZM26.6277 17.5452H23.6538L23.5695 20.9861C23.6163 21.0957 23.6351 21.2237 23.7756 21.2374C24.6888 21.2648 25.6067 21.2191 26.52 21.146C26.8665 20.9175 26.7026 20.5611 26.6932 20.2641C26.6792 19.5558 26.623 18.8155 26.6417 18.1164C26.6417 18.0021 26.7729 17.5954 26.6183 17.5452H26.6277ZM67.3486 17.5452C67.3158 18.0707 67.3205 18.5962 67.3018 19.1217C67.2877 19.5832 67.2034 20.0676 67.2503 20.5382C67.2924 20.9678 67.6155 21.1597 68.0277 21.1963C68.4398 21.2328 68.9175 21.1917 69.339 21.1963C69.6856 21.1963 70.3272 21.3928 70.3927 20.8581C70.4583 20.3235 70.3646 19.6792 70.3412 19.1217C70.3272 18.7607 70.5051 17.664 70.0368 17.5909C69.8682 17.5634 69.5263 17.5497 69.339 17.5406C68.6787 17.5086 68.0089 17.568 67.3486 17.5406V17.5452Z" fill="white"/>
<path d="M20.4953 33.2363C20.8797 33.5565 21.6161 32.9343 22.1255 32.884C22.9777 32.8017 24.1171 33.5519 24.8488 33.9911C25.7659 34.54 28.0399 35.9856 28.378 36.9554C28.6096 37.6325 28.0167 38.4559 27.3127 38.4559C26.8635 38.4559 25.2981 37.8063 24.8164 37.5913C24.1819 37.3077 22.2923 36.4385 21.8754 36.013C21.2178 35.3452 21.6161 34.3433 20.574 33.8218C20.4999 33.7852 19.87 33.5336 19.9441 33.7532C20.0414 34.0277 20.3702 34.1009 20.5648 34.2381C20.7871 34.3936 20.9769 34.6635 21.0186 34.9334C21.102 35.4732 21.0464 36.2738 21.0742 36.8456C21.0927 37.2207 21.0927 37.6142 21.1205 37.9893C21.1344 38.2134 21.2363 38.4239 21.2132 38.6526C21.2502 38.7121 22.3247 38.1814 22.5331 38.1906C22.9129 38.2089 23.2 38.8447 23.2093 39.1787C23.2278 40.0067 22.4081 40.2903 21.7458 40.4779C20.5555 40.8164 19.3606 40.821 18.1564 40.5511C17.5914 40.423 16.8967 40.2674 16.7068 39.6499C16.5169 39.0323 16.9522 38.3004 16.9985 37.6233C17.068 36.6398 16.7762 34.9472 17.2672 34.1375C17.4756 33.7944 17.8183 33.6434 18.0221 33.282C18.0453 33.2408 18.0916 33.2134 18.0453 33.1631C17.5358 32.8017 16.7531 32.6233 16.1325 32.5363C15.2988 32.4174 14.4605 32.5958 13.6685 32.3168C12.8766 32.0377 11.8716 31.5162 11.0564 31.1457C9.35668 30.3725 7.62453 29.5857 5.99889 28.6845C5.35976 27.9755 5.84142 27.5546 6.65193 27.4951C7.37443 27.4402 8.08767 27.7467 8.76849 27.9663C11.1305 28.7165 14.0807 29.7367 16.1649 31.045C16.5539 31.292 17.3181 31.9828 17.7211 32.024C18.3926 32.0972 19.1429 31.6672 19.8608 32.0148C20.2869 32.2207 20.1942 32.9984 20.4906 33.2454L20.4953 33.2363ZM20.4258 34.906C20.2637 34.7459 19.9812 34.8511 19.8145 34.8511C19.4578 34.8511 19.1012 34.8602 18.7446 34.8511C18.513 34.8511 17.8507 34.6864 17.7257 34.9426C17.6562 35.0844 17.7118 35.7111 17.7025 35.9261C17.6794 36.5163 17.6192 37.1155 17.6516 37.7102C17.6562 37.8292 17.684 38.2134 17.7072 38.2958C17.7211 38.3369 17.8183 38.4467 17.86 38.465C18.1471 38.6251 19.1892 38.5474 19.5783 38.552C19.8886 38.5565 20.4721 38.7715 20.5277 38.3049C20.5648 37.9893 20.6111 37.1841 20.5786 36.8822C20.5648 36.7404 20.4953 36.6809 20.4814 36.5666C20.4397 36.2784 20.5601 35.0387 20.4258 34.906Z" fill="white"/>
<path d="M76.0335 33.7776C76.7406 33.8733 77.0075 34.4522 77.059 35.0812C77.148 36.166 76.8998 37.4924 77.1573 38.5408C77.2697 38.992 77.5038 39.1196 77.3165 39.662C76.9373 40.7423 74.596 40.8106 73.6173 40.7104C73.0788 40.6557 71.6834 40.3503 71.2807 40.0221C70.8078 39.6301 70.6626 38.4633 71.2526 38.1396C71.7818 37.8525 72.0018 38.4405 72.4092 38.5134C72.5122 38.5316 72.9805 38.5408 73.0226 38.4724C73.0741 37.5517 72.9758 36.5899 73.0226 35.6738C73.046 35.2635 73.0554 34.7348 73.5377 34.6026C73.5892 34.5343 73.313 34.3656 73.2568 34.3474C73.1116 34.3064 72.8119 34.557 72.7464 34.6801C72.6902 34.7849 72.7557 34.9399 72.737 35.0767C72.5778 36.2937 70.8921 36.7586 69.8713 37.2098C69.2017 37.5106 67.3521 38.3995 66.7246 38.4314C65.8115 38.4815 65.3948 37.6383 65.7319 36.8725C65.9145 36.4532 66.8276 35.7193 67.2163 35.4003C68.2605 34.5434 70.6673 32.8478 72.0159 32.7794C72.7979 32.743 72.7417 33.5588 73.2006 33.7229C73.4815 33.8232 73.8889 33.6637 74.1933 33.691C73.6314 33.0711 73.3645 32.5743 74.226 32.0592C75.2094 31.4713 75.6496 32.1641 76.5533 32.0456C77.3868 31.9362 77.4757 31.3163 78.0657 30.9653C79.3675 30.1859 81.6058 29.411 83.0808 28.8732C84.2139 28.4584 85.6047 27.9069 86.7566 27.6197C87.075 27.5377 87.4636 27.4511 87.7867 27.5058C88.3908 27.6061 88.5125 28.4493 88.0958 28.8367C87.8148 29.0965 86.3164 29.7392 85.8716 29.9534C83.9985 30.8331 82.074 31.6308 80.1869 32.4877C79.6672 32.629 79.11 32.5105 78.5761 32.5606C77.8878 32.6244 77.1246 32.9162 76.4128 32.9617C76.0429 33.103 75.9726 33.4221 76.0242 33.7822L76.0335 33.7776ZM74.0528 34.8396C73.4675 34.9126 73.6688 35.7102 73.6407 36.1296C73.5986 36.7586 73.4581 37.5608 73.5471 38.1852C73.5752 38.3812 73.7016 38.5043 73.8983 38.5271C74.3525 38.5818 75.3499 38.5635 75.8228 38.5271C76.1599 38.4997 76.4081 38.4678 76.4549 38.0941C76.5158 37.5927 76.4034 36.9728 76.4034 36.4486C76.4034 36.3164 76.4503 36.2071 76.4549 36.0885C76.4596 35.8105 76.5346 35.0949 76.3004 34.9582C76.0382 34.8077 74.802 34.8807 74.4133 34.8807C74.2869 34.8807 74.1933 34.8214 74.0528 34.8396Z" fill="white"/>
<path d="M46.8915 34.1329C48.3882 33.977 49.9384 34.9215 50.1036 36.3933C50.4292 39.3324 46.1674 40.2357 44.7727 37.8468C43.83 36.2329 45.0011 34.3255 46.8915 34.1329ZM46.6728 36.5171C46.0459 37.1774 47.392 38.0394 47.912 37.2508C48.3882 36.5263 47.2511 35.9119 46.6728 36.5171Z" fill="white"/>
</svg>
