<svg width="26" height="36" viewBox="0 0 26 36" fill="none" xmlns="http://www.w3.org/2000/svg">
<g clip-path="url(#clip0_1_659)">
<rect x="3.25" y="21.6999" width="2.16668" height="2.32376" fill="white"/>
<rect x="5.41699" y="24.0244" width="2.16668" height="2.32376" fill="white"/>
<rect x="7.58325" y="26.3478" width="2.16668" height="2.32376" fill="white"/>
<rect x="9.75012" y="28.671" width="2.16668" height="2.32376" fill="white"/>
<rect x="11.9169" y="30.9952" width="2.16668" height="2.32376" fill="white"/>
<rect x="11.9169" y="28.671" width="2.16668" height="2.32376" fill="white"/>
<rect x="11.9169" y="26.3478" width="2.16668" height="2.32376" fill="white"/>
<rect x="11.917" y="24.0244" width="2.16668" height="2.32376" fill="white"/>
<rect x="11.9169" y="21.6999" width="2.16668" height="2.32376" fill="white"/>
<rect x="11.9169" y="19.3767" width="2.16668" height="2.32376" fill="white"/>
<rect x="11.9169" y="17.0525" width="2.16668" height="2.32376" fill="white"/>
<rect x="11.917" y="14.729" width="2.16668" height="2.32376" fill="white"/>
<rect x="11.9169" y="12.4056" width="2.16668" height="2.32376" fill="white"/>
<rect x="11.9167" y="10.0814" width="2.16668" height="2.32376" fill="white"/>
<rect x="14.0834" y="28.671" width="2.16668" height="2.32376" fill="white"/>
<rect x="16.2501" y="26.3478" width="2.16668" height="2.32376" fill="white"/>
<rect x="18.417" y="24.0244" width="2.16668" height="2.32376" fill="white"/>
<rect x="20.5834" y="21.6999" width="2.16668" height="2.32376" fill="white"/>
</g>
<defs>
<clipPath id="clip0_1_659">
<rect width="26" height="36" fill="white"/>
</clipPath>
</defs>
</svg>
