<svg width="164" height="64" viewBox="0 0 164 64" fill="none" xmlns="http://www.w3.org/2000/svg">
<path d="M67.2 4.93179H69.25C69.6 3.83179 70.39 3.62179 70.69 4.89179L72.73 4.95179L73.35 5.63179H81.7C81.61 4.25179 83.45 4.27179 83.51 5.63179C83.92 5.58179 85.09 5.77179 85.35 5.54179C85.44 5.46179 85.7 4.86179 85.86 4.65179C88.04 1.75179 92.41 1.50179 94.8 4.29179C95.04 4.57179 95.55 5.58179 95.61 5.63179C95.82 5.76179 96.61 5.50179 96.85 5.74179L98.7 10.6418C98.88 10.7718 100.43 10.0018 100.77 9.96179C101.11 9.92179 101.24 10.2418 100.93 10.4218C100.5 10.6818 99.62 10.7918 99.17 11.0618C99.06 11.1318 99 11.1318 99 11.2818C99 11.4018 99.77 13.4518 99.85 13.5418C99.91 13.6018 99.96 13.6418 100.05 13.6318C101.56 12.8618 102.14 14.7818 100.51 15.0418L102.6 20.8318H99.9L100.26 22.1418H111.25C111.56 22.1518 111.63 21.8218 111.94 21.8218C112.31 21.8218 112.24 22.1018 112.36 22.1318C112.89 22.2718 113.95 22.0218 114.54 22.1318L115.04 21.7618L115.54 22.1318C116.36 21.9518 120.68 22.3418 121.07 22.1018C121.15 22.0518 121.08 21.8118 121.44 21.8118C121.73 21.8118 121.79 22.0818 122.13 22.1318C124.89 22.5018 128.49 21.8518 131.34 22.1318C133.39 22.2618 135.38 22.4018 137.39 22.8818C139.76 23.4518 141.92 24.5018 143.96 25.8218L147.86 22.0518L150.14 22.0318C150.4 21.9918 150.41 21.6818 150.65 21.5418C151.35 21.1218 151.36 21.9618 151.74 22.0318L160.69 21.9818C160.86 21.6918 161.13 21.3418 161.52 21.4418C161.85 21.5318 161.92 22.2818 162.59 22.0218L162.39 35.3218H160.69L159.89 36.7218L163.49 38.4218L161.19 42.0718L163.78 44.8618C163.47 46.3118 163.58 47.9018 163.26 49.3418C162.98 50.5818 162.33 51.8918 161.94 53.1218L158.41 55.3918L138.41 63.1918C105.49 63.4018 72.48 63.4118 39.57 63.1918C33.67 60.2118 27.07 57.8918 21.25 54.8118C19.87 54.0818 18.67 52.5118 17.5 51.4618L15.79 45.9718L12.19 44.1618C12.46 39.2918 15.69 36.8218 20.18 35.8718C24.1 35.0418 28.23 35.3818 32.18 35.6218C32.16 35.3618 32.03 34.4018 31.82 34.3318C31.53 34.2518 31.11 34.3918 30.84 34.3018C30.7 34.2518 30.71 34.0418 30.61 34.0118C30.26 33.9218 29.62 34.1018 29.25 34.0118C29.17 33.9918 29.22 33.8318 29.04 33.8018C28.53 33.7318 25.7 33.9318 25.58 33.8018V33.4018H29.18V32.9018C30.08 33.0418 30.82 32.6818 31.68 32.7018C31.6 31.6818 31.74 30.8618 32.38 30.0518C32.51 29.8818 33.07 29.2618 33.27 29.4018C33.7 30.0118 33.24 30.2018 33.18 30.6518C33.1 31.2718 33.66 31.9518 34.28 31.8518C34.67 31.3718 36.23 28.0118 36.55 27.9118C37.32 27.6818 39.1 28.0318 40.03 27.8918C40.37 27.8418 40.52 27.5418 40.93 27.4918C42.22 27.3418 43.78 27.6318 45.11 27.4718C46.29 26.6518 47.51 25.8318 48.43 24.7218C49.65 25.5218 50.85 25.7718 52.28 25.4018V21.2518C51.67 20.7518 51.31 19.8618 50.39 20.1118L50.08 20.9018L49.11 17.6018H39.52L38.87 17.9018V14.2518C38.87 14.1418 39.84 12.7518 39.77 12.7018L0 11.8318V10.5318C1.12 10.5518 2.24 10.5118 3.35 10.5318C8.92 10.6418 14.57 10.7018 20.14 10.7418C27.09 10.7918 34.04 10.7418 40.98 10.8218C41.02 10.8018 41.19 10.2918 41.29 10.2018C41.62 9.91179 48.99 10.2918 50.05 10.1418L52.4 7.29179L52.5 6.84179L60.23 6.82179L61.25 4.94179H64.5V1.68179C64.5 1.60179 65.24 0.321792 65.34 0.221792C65.61 -0.0382081 66 -0.0882081 66.3 0.171792C66.42 0.271792 67.2 1.66179 67.2 1.77179V4.92179V4.93179ZM31.09 53.0418L27.67 51.7418C26.82 52.4618 25.92 53.1118 24.9 53.5618L24.11 55.5218L28.65 57.6118C28.86 57.5618 29.13 56.6318 29.27 56.4318C29.54 56.0118 31.05 54.8218 31.51 55.4218L31.1 53.0318L31.09 53.0418ZM48.2 61.1818C48.28 61.6318 48.15 62.2518 48.2 62.7318H53.7C53.72 62.3618 53.66 61.9518 53.7 61.5818C53.77 60.9318 54.7 58.6218 55.54 59.5318C55.61 59.6118 56.4 60.8918 56.4 60.9718V62.7218H70.5V61.4218C68.03 62.6618 65.38 62.9518 62.72 62.1518C58.95 61.0018 56.42 57.8918 55.72 54.0518C55.66 53.7118 55.83 53.1918 55.44 53.1318H51.19C51.13 55.8818 49.68 58.3718 47.7 60.1918C47.69 60.2818 48.15 60.9418 48.19 61.1818H48.2ZM73.2 60.9818C73.29 61.4218 73.13 62.1118 73.2 62.5818L73.54 62.7418H79V61.1818C79 61.0618 79.73 59.7818 79.86 59.6418C80.14 59.3318 80.53 59.2218 80.85 59.5418C80.91 59.6018 81.7 61.0018 81.7 61.0918V62.7418H96V61.6418C95.35 61.8018 94.75 62.1218 94.1 62.2918C87.94 63.8818 81.77 59.5018 81.5 53.1418H75.81C75.57 55.7418 74.5 58.1218 72.62 59.9018C72.57 60.1518 73.15 60.7418 73.2 60.9918V60.9818ZM98.7 61.0818C98.78 61.5518 98.64 62.2318 98.7 62.7318H104.8V61.2818C104.8 61.1018 105.5 59.8118 105.66 59.6418C105.94 59.3318 106.33 59.2218 106.65 59.5418C106.71 59.6018 107.5 61.0018 107.5 61.0918V62.7418H121.6V61.1918C121.6 61.0918 122.34 59.7818 122.45 59.6418C122.72 59.3218 123.12 59.2018 123.44 59.5418C123.54 59.6518 124.3 61.0018 124.3 61.0818V62.7318H129.8C129.79 61.9418 129.73 61.1718 130.18 60.4818C127.9 58.6918 126.55 56.0018 126.25 53.1318H124.11C123.99 57.1118 121.2 60.7418 117.46 62.0418C111.04 64.2718 104.48 59.8418 104.01 53.1418H101.62C101.41 55.8618 100.22 58.2718 98.23 60.1018C98.19 60.3118 98.67 60.8318 98.71 61.0918L98.7 61.0818ZM157.9 55.0318C155.03 55.6318 151.95 54.9318 149.63 53.1518L146.6 53.1318C146.46 55.8018 145.16 58.3018 143.2 60.0818L141.3 61.4318L147.1 59.3318C147.11 58.8318 146.7 58.4218 146.62 57.9618C146.51 57.3318 146.54 55.2118 147.59 55.5818C147.68 55.6118 148.77 56.4618 148.86 56.5618C149.27 57.0218 149.29 57.7418 149.66 58.2318L157.9 55.0218V55.0318ZM34.9 60.4218L33.16 58.6118L31.7 56.0218C31.64 56.4318 31.78 56.9118 31.73 57.3018C31.67 57.8618 31.26 58.2718 31.2 58.8118L34.89 60.4218H34.9ZM42.45 62.5318C41.67 62.6118 40.66 62.5318 39.85 62.5318C39.82 62.5318 39.41 62.3118 39.4 62.4818C39.49 62.5218 39.83 62.7318 39.85 62.7318H45.5V61.6318C44.57 61.9318 43.43 62.4318 42.45 62.5318ZM132.5 62.7318H136.3C136.25 62.5918 135.78 62.5618 135.64 62.5418C134.54 62.4118 133.53 62.3018 132.5 61.8318V62.7318Z" fill="white"/>
</svg>
