<svg width="42" height="56" viewBox="0 0 42 56" fill="none" xmlns="http://www.w3.org/2000/svg">
<g clip-path="url(#clip0_1_614)">
<path d="M4.49463 33.477C5.12567 33.5216 10.7758 31.9367 10.7654 32.3123C8.91821 35.4204 4.70358 41.327 4.70358 41.327L2.62502 39.9562L0.203483 38.2214L3.83655 32.8029C3.88461 32.839 4.37344 33.4685 4.49463 33.477Z" fill="#8E0C08"/>
<path d="M13.8318 19.5183C13.4974 19.1618 12.8299 19.7183 12.226 19.6865L0.101013 22.2774L0.403898 22.5839L2.94784 24.5102C7.38706 26.1202 12.5263 24.8445 16.4568 24.1168C16.6845 24.0744 17.2428 23.6522 17.4664 23.5037C18.3461 22.9202 15.8367 21.6489 15.1514 21.3837C14.932 21.2989 15.3087 20.6699 15.0433 20.6423C15.0161 20.6381 14.3965 20.2587 14.2356 20.1314C13.9723 19.9235 13.9885 19.6859 13.8318 19.5183Z" fill="#8E0C08"/>
<path d="M16.6586 22.6861C16.6586 22.6861 14.6708 23.2996 14.3198 23.393C11.1436 24.2416 8.3798 25.0365 4.49468 25.4149L2.74785 24.1671C7.69497 23.7583 16.6586 22.6861 16.6586 22.6861Z" fill="#C92020"/>
<path d="M41.798 17.1679L29.8848 20.1128L31.2409 17.9891L31.7019 17.0657L32.2067 14.9197L33.3304 15.231L37.5576 14.4248L41.798 17.1679Z" fill="#C92020"/>
<path d="M33.3173 15.2263L35.42 17.3505L30.6923 18.3942L33.3173 15.2263Z" fill="#8E0C08"/>
<path d="M24.1364 3.13795L28.3155 6.32037L23.194 13.7439L19.8382 10.3578C19.6188 10.2454 19.3958 9.89642 19.3352 9.83489C21.1801 7.45377 22.1261 6.04032 24.1364 3.13795Z" fill="#8E0C08"/>
<path d="M33.3304 45.2701L33.4203 44.7065C33.5248 44.5602 36.7406 43.9406 36.8827 44.0828V49.1747C35.6059 48.3803 35.3143 48.1858 34.4725 47.6335C33.916 47.2685 33.3173 46.8029 33.3173 46.8029L33.3304 45.2701Z" fill="#6A0906"/>
<path d="M25.1812 48.7526C25.1958 47.9867 25.1812 48.7526 25.2084 46.4464C26.3096 46.213 26.6538 46.0876 28.5245 45.7802V50.8721C27.1586 49.9708 25.7452 49.1533 25.1812 48.7504V48.7526Z" fill="#6A0906"/>
<path d="M42 3.47445V6.33577V11.5201L34.8454 13.0395L33.3305 15.2311L32.2067 16.6569L31.2409 17.9892L29.8848 20.113L41.798 17.1679L41.8057 19.1095V25.6398L35.6269 27.0082L41.8558 33.8377V47.7913L39.6778 48.438L36.8827 49.1749V44.083L33.4203 44.7067L33.3305 49.177L33.3173 49.9708C33.3173 49.9708 30.9952 50.3796 28.5245 50.8743V45.7824C26.4519 46.1898 26.3096 46.2152 25.2084 46.4486C25.1812 48.6423 25.1958 47.9889 25.1812 48.7548C25.1624 49.7328 25.154 49.9708 25.154 51.6975C22.9182 52.219 22.9182 52.219 21.0021 52.5737V47.2696L17.8782 47.9146C17.849 48.7569 17.8782 49.6077 17.8678 50.4521C17.8573 51.4407 17.8761 52.4358 17.8678 53.4223C15.75 53.854 15.548 53.854 12.8508 54.271V48.9669L9.51793 49.614C9.48867 50.3863 9.51793 51.167 9.50748 51.9393C9.49494 52.9895 9.48449 53.6496 9.48449 55.1005C6.66342 55.5912 7.67304 55.4891 4.49255 55.9704L4.70151 41.3312C6.71166 38.3249 10.7633 32.3165 10.7633 32.3165C10.7633 32.3165 5.1236 33.5258 4.49255 33.4813V25.4191L12.7211 23.6058L15.4471 22.9927L16.6586 22.6861L15.1493 21.3881L11.3233 17.8216L9.18746 18.1898L5.45189 18.9051L4.49255 19.0543L4.54323 11.1387C8.89368 10.0291 12.6077 8.82743 17.7523 7.9666C18.486 8.82839 18.8844 9.30241 19.3733 9.79675C19.4318 9.85615 20.7504 11.2603 20.7504 11.2603L23.192 13.7481L28.3134 6.32461L42 3.27007V3.47445Z" fill="#B10F0A"/>
<path d="M4.70359 41.3269L4.49464 55.966C4.10389 55.8939 0.205814 52.6386 0.205814 52.6386L0.201904 45.6788L0.203497 38.2095C0.203497 38.2095 3.12981 40.1606 4.70359 41.3269Z" fill="#6A0906"/>
<path d="M42 3.27007L28.3155 6.32029L24.1364 3.13787L37.2337 2.38434e-08L39.6779 1.73722L42 3.27007Z" fill="#C92020"/>
<path d="M17.756 7.96159C17.756 7.96159 14.1233 8.97382 4.54327 11.1387C3.02625 10.3897 2.66056 9.98093 1.22354 9.068C0.887944 8.8548 0.315369 8.44125 0.315369 8.44125L13.5904 5.13643C13.8663 5.1534 17.756 7.96159 17.756 7.96159Z" fill="#C92020"/>
<path d="M4.54325 11.1387L4.49459 19.0499C2.82691 17.9854 2.12018 17.4745 0.355192 16.1454C0.315491 13.2847 0.315491 8.44183 0.315491 8.44183C0.315491 8.44183 3.02624 10.3898 4.54325 11.1387Z" fill="#6A0906"/>
<path d="M2.86947 24.1847L4.49461 25.4149V33.477C4.37341 33.4685 3.83647 33.0073 3.83647 33.0073C3.83647 33.0073 3.11796 32.432 2.92781 32.292C1.87886 31.5261 1.39367 31.1137 0.100891 30.146V22.2774L2.86947 24.1847Z" fill="#6A0906"/>
<path d="M9.50951 51.9351C9.51996 51.1628 9.49071 50.382 9.51996 49.6098L12.8528 48.9627V54.2667C11.1057 53.0365 10.9038 52.9343 9.50951 51.9329V51.9351Z" fill="#6A0906"/>
<path d="M17.8677 50.4498C17.8782 49.6075 17.8489 48.7567 17.8782 47.9123L21.0021 47.2674V52.5714C19.4856 51.5037 18.7788 51.0949 17.8698 50.4498H17.8677Z" fill="#6A0906"/>
<path d="M16.5577 22.6861C16.3383 22.6013 14.6274 21.4235 14.6274 21.4235L13.2945 20.4736L12.226 19.6865L10.6809 17.9248L11.3254 17.8174C11.3254 17.8174 16.1189 22.0518 16.5577 22.6861Z" fill="#8E0C08"/>
</g>
<defs>
<clipPath id="clip0_1_614">
<rect width="42" height="56" fill="white"/>
</clipPath>
</defs>
</svg>
